<svg width="56" height="52" viewBox="0 0 56 52" fill="none" xmlns="http://www.w3.org/2000/svg">
<g clip-path="url(#clip0_33_107)">
<path d="M54.25 50.96H1.75V49.79H6.37V24.375C6.37 22.2609 8.22325 20.54 10.5 20.54H13.37V11.375C13.37 11.0516 13.6517 10.79 14 10.79H17.5C17.8482 10.79 18.13 11.0516 18.13 11.375V20.54H25.62V11.375C25.62 11.0516 25.9018 10.79 26.25 10.79H29.75C30.0982 10.79 30.38 11.0516 30.38 11.375V20.54H37.8682V11.375C37.8682 11.0516 38.15 10.79 38.4983 10.79H41.9983C42.3465 10.79 42.6283 11.0516 42.6283 11.375V20.54H45.5C47.7785 20.54 49.63 22.2609 49.63 24.375V49.79H54.25V50.96ZM7.63 49.79H48.37V30.3794C47.6262 31.0472 46.6147 31.46 45.5 31.46C44.0265 31.46 42.7315 30.7401 42 29.6595C41.2685 30.7401 39.9735 31.46 38.5 31.46C37.0265 31.46 35.7315 30.7401 35 29.6595C34.2685 30.7401 32.9735 31.46 31.5 31.46C30.0265 31.46 28.7315 30.7401 28 29.6595C27.2685 30.7401 25.9735 31.46 24.5 31.46C23.0265 31.46 21.7315 30.7401 21 29.6595C20.2685 30.7401 18.9735 31.46 17.5 31.46C16.0265 31.46 14.7315 30.7401 14 29.6595C13.2685 30.7401 11.9735 31.46 10.5 31.46C9.38525 31.46 8.37375 31.0472 7.63 30.3794V49.79ZM42 27.04C42.3483 27.04 42.63 27.3016 42.63 27.625C42.63 29.094 43.9162 30.29 45.5 30.29C47.0838 30.29 48.37 29.0956 48.37 27.625V24.375C48.37 22.906 47.0838 21.71 45.5 21.71H10.5C8.918 21.71 7.63 22.906 7.63 24.375V27.625C7.63 29.094 8.918 30.29 10.5 30.29C12.082 30.29 13.37 29.094 13.37 27.625C13.37 27.3016 13.6517 27.04 14 27.04C14.3483 27.04 14.63 27.3016 14.63 27.625C14.63 29.094 15.918 30.29 17.5 30.29C19.082 30.29 20.37 29.0956 20.37 27.625C20.37 27.3016 20.6518 27.04 21 27.04C21.3482 27.04 21.63 27.3016 21.63 27.625C21.63 29.094 22.918 30.29 24.5 30.29C26.082 30.29 27.37 29.0956 27.37 27.625C27.37 27.3016 27.6518 27.04 28 27.04C28.3482 27.04 28.63 27.3016 28.63 27.625C28.63 29.094 29.918 30.29 31.5 30.29C33.082 30.29 34.37 29.0956 34.37 27.625C34.37 27.3016 34.6517 27.04 35 27.04C35.3483 27.04 35.63 27.3016 35.63 27.625C35.63 29.094 36.9162 30.29 38.5 30.29C40.0838 30.29 41.37 29.0956 41.37 27.625C41.37 27.3016 41.6517 27.04 42 27.04ZM39.13 20.54H41.3682V11.96H39.13V20.54ZM26.88 20.54H29.12V11.96H26.88V20.54ZM14.63 20.54H16.87V11.96H14.63V20.54ZM40.25 8.71C38.9375 8.71 37.87 7.71875 37.87 6.5C37.87 4.78563 39.501 1.70787 39.6865 1.36337C39.9017 0.966875 40.5983 0.966875 40.8153 1.36337C41.0008 1.70787 42.63 4.78563 42.63 6.5C42.63 7.71875 41.5625 8.71 40.25 8.71ZM40.25 3.0225C39.7303 4.14212 39.13 5.64363 39.13 6.5C39.13 7.07363 39.6323 7.54 40.25 7.54C40.8677 7.54 41.37 7.07363 41.37 6.5C41.37 5.64363 40.7697 4.14212 40.25 3.0225ZM28 8.71C26.6875 8.71 25.62 7.71875 25.62 6.5C25.62 4.78563 27.251 1.70787 27.4365 1.36337C27.6483 0.966875 28.35 0.966875 28.5635 1.36337C28.749 1.70787 30.38 4.78563 30.38 6.5C30.38 7.71875 29.3125 8.71 28 8.71ZM28 3.0225C27.4802 4.14212 26.88 5.64363 26.88 6.5C26.88 7.07363 27.3822 7.54 28 7.54C28.6178 7.54 29.12 7.07363 29.12 6.5C29.12 5.64363 28.5198 4.14212 28 3.0225ZM15.75 8.71C14.4375 8.71 13.37 7.71875 13.37 6.5C13.37 4.78563 15.001 1.70787 15.1865 1.36337C15.3983 0.966875 16.1 0.966875 16.3135 1.36337C16.499 1.70787 18.13 4.78563 18.13 6.5C18.13 7.71875 17.0625 8.71 15.75 8.71ZM15.75 3.0225C15.2303 4.14212 14.63 5.64363 14.63 6.5C14.63 7.07363 15.1322 7.54 15.75 7.54C16.3678 7.54 16.87 7.07363 16.87 6.5C16.87 5.64363 16.2697 4.14212 15.75 3.0225Z" fill="black"/>
</g>
<defs>
<clipPath id="clip0_33_107">
<rect width="56" height="52" fill="white"/>
</clipPath>
</defs>
</svg>
