<svg width="21" height="21" viewBox="0 0 21 21" fill="none" xmlns="http://www.w3.org/2000/svg">
<mask id="mask0_38_3608" style="mask-type:alpha" maskUnits="userSpaceOnUse" x="0" y="0" width="21" height="21">
<g clip-path="url(#clip0_38_3608)">
<g clip-path="url(#clip1_38_3608)">
<path d="M18.6169 8.50905H14.815L11.3388 3.30239C11.2646 3.19732 11.1659 3.11201 11.0512 3.05391C10.9364 2.9958 10.8092 2.96667 10.6807 2.96905C10.5511 2.96625 10.4228 2.99599 10.3077 3.05556C10.1926 3.11512 10.0942 3.20261 10.0216 3.31001L6.54543 8.50905H2.74353C2.53336 8.50981 2.33201 8.59363 2.18339 8.74225C2.03477 8.89086 1.95095 9.09221 1.9502 9.30239C1.9502 9.37382 1.95781 9.44524 1.98162 9.51667L3.99781 16.8738C4.18067 17.5405 4.79115 18.0329 5.52162 18.0329H15.8388C16.5692 18.0329 17.1807 17.5405 17.3711 16.8738L19.3864 9.51667L19.4102 9.30239C19.4094 9.09221 19.3256 8.89086 19.177 8.74225C19.0284 8.59363 18.827 8.50981 18.6169 8.50905ZM10.6807 5.17572L12.9026 8.50905H8.45781L10.6807 5.17572ZM15.8388 16.4452L5.52924 16.4529L3.78448 10.0957H17.5864L15.8397 16.4452H15.8388Z" fill="white"/>
</g>
</g>
</mask>
<g mask="url(#mask0_38_3608)">
<rect x="0.679932" y="0.889999" width="20" height="20" fill="black"/>
</g>
<defs>
<clipPath id="clip0_38_3608">
<rect width="20" height="20" fill="white" transform="translate(0.679932 0.889999)"/>
</clipPath>
<clipPath id="clip1_38_3608">
<rect width="19.0476" height="20" fill="white" transform="translate(1.15601 0.889999)"/>
</clipPath>
</defs>
</svg>
