<svg width="20" height="20" viewBox="0 0 20 20" fill="none" xmlns="http://www.w3.org/2000/svg">
<path d="M6.40001 1.20001C3.53301 1.20001 1.20001 3.53301 1.20001 6.40001V13.6C1.20001 16.467 3.53301 18.8 6.40001 18.8H13.6C16.467 18.8 18.8 16.467 18.8 13.6V6.40001C18.8 3.53301 16.467 1.20001 13.6 1.20001H6.40001ZM6.40001 2.00001H13.6C16.0346 2.00001 18 3.96542 18 6.40001V13.6C18 16.0346 16.0346 18 13.6 18H6.40001C3.96542 18 2.00001 16.0346 2.00001 13.6V6.40001C2.00001 3.96542 3.96542 2.00001 6.40001 2.00001ZM14.8 4.40001C14.5878 4.40001 14.3844 4.4843 14.2343 4.63433C14.0843 4.78436 14 4.98784 14 5.20001C14 5.41219 14.0843 5.61567 14.2343 5.7657C14.3844 5.91573 14.5878 6.00001 14.8 6.00001C15.0122 6.00001 15.2157 5.91573 15.3657 5.7657C15.5157 5.61567 15.6 5.41219 15.6 5.20001C15.6 4.98784 15.5157 4.78436 15.3657 4.63433C15.2157 4.4843 15.0122 4.40001 14.8 4.40001ZM10 5.60001C7.5747 5.60001 5.60001 7.5747 5.60001 10C5.60001 12.4253 7.5747 14.4 10 14.4C12.4253 14.4 14.4 12.4253 14.4 10C14.4 7.5747 12.4253 5.60001 10 5.60001ZM10 6.40001C11.993 6.40001 13.6 8.00705 13.6 10C13.6 11.993 11.993 13.6 10 13.6C8.00705 13.6 6.40001 11.993 6.40001 10C6.40001 8.00705 8.00705 6.40001 10 6.40001Z" fill="black"/>
</svg>
