<svg width="58" height="51" viewBox="0 0 58 51" fill="none" xmlns="http://www.w3.org/2000/svg">
<g clip-path="url(#clip0_33_114)">
<path d="M52.2043 25.5206C52.3132 25.0855 52.3714 24.6386 52.3714 24.1866C52.3714 21.2941 50.0827 18.8051 46.9412 18.1547C49.0213 16.1133 48.8481 13.0571 46.7217 11.1532C44.4678 9.13548 41.827 9.69388 41.0547 9.60015C40.4769 9.60015 39.9974 9.16117 40.0693 8.64311C40.4737 5.73621 39.6456 2.8315 37.7379 0.464877C37.1598 -0.258984 35.8792 -0.111164 35.5544 0.723961C31.2426 11.9564 17.2745 9.24604 15.4844 9.60015C12.0041 9.60015 9.26676 12.2342 9.61804 15.3109C9.73653 16.3632 10.2358 17.3535 11.0426 18.1555C7.90761 18.8112 5.62284 21.3012 5.62284 24.1866C5.62284 24.6433 5.68163 25.0916 5.79174 25.5248C4.91494 25.9032 4.51359 26.7143 4.75125 27.5073L10.994 48.3295C11.4641 49.9019 13.0815 50.9999 14.9272 50.9999H43.0675C44.8839 50.9999 46.496 49.925 46.9842 48.3991C46.9857 48.395 46.9943 48.3695 46.9958 48.3651C46.9963 48.3633 47.0055 48.3362 47.0062 48.3343L53.2488 27.5071C53.4879 26.7092 53.08 25.898 52.2043 25.5206ZM6.36075 24.1866C6.36075 21.4127 8.71893 19.0471 11.8458 18.6842C11.9891 18.6675 12.1081 18.579 12.1504 18.4579C12.1928 18.3365 12.1507 18.2047 12.0429 18.1203C11.0759 17.3637 10.4754 16.3433 10.3523 15.2466C10.0388 12.5019 12.4913 10.2492 15.4843 10.2492C16.8352 9.97767 31.8114 12.504 36.2528 0.932842C36.3813 0.603334 36.8991 0.544067 37.1345 0.839109C38.9366 3.07484 39.7183 5.81838 39.3362 8.56481C39.2125 9.46229 40.0261 10.2493 41.0545 10.2493C41.8418 10.3405 44.2024 9.82437 46.1951 11.6082C48.1853 13.3902 48.2325 16.3453 45.9348 18.119C45.934 18.1196 45.9335 18.1205 45.9327 18.1211C45.9315 18.1219 45.9301 18.1222 45.929 18.1231C44.1167 19.575 40.4014 20.0946 25.9822 18.6855C25.7818 18.6647 25.5976 18.7938 25.5748 18.9722C25.5524 19.1501 25.6982 19.3106 25.9009 19.3304C30.4439 19.7744 42.855 21.2727 46.2856 18.7087C49.3441 19.1224 51.6332 21.4509 51.6332 24.1869C51.6332 24.5805 51.5846 24.9697 51.4926 25.3486C51.1152 25.3259 50.7304 25.4023 50.3796 25.581C50.325 25.6086 46.7522 27.4198 46.7844 27.4035L42.5358 24.5258C41.8685 24.0743 40.9002 24.0612 40.2998 24.429C40.2986 24.4297 40.2972 24.4305 40.2957 24.4313L34.9246 27.4042L30.0958 24.4594C29.4307 24.0649 28.5465 24.0655 27.8852 24.4699L27.885 24.4697L23.0702 27.4039L17.7003 24.4292L17.7001 24.4294C17.0535 24.0639 16.1343 24.0724 15.4639 24.5257C15.2334 24.6817 16.6068 23.7526 11.2101 27.4035C9.61589 26.5962 11.6752 27.6416 7.62067 25.5812C7.31379 25.4227 6.90824 25.3278 6.50326 25.3525C6.41014 24.9751 6.36075 24.5846 6.36075 24.1866ZM23.4618 27.9545L28.2838 25.0159C28.3476 24.9873 28.4294 24.9177 28.6312 24.8623V50.3512H25.1137L23.4618 27.9545ZM14.9273 50.3512C13.4166 50.3512 12.0927 49.4523 11.7079 48.1646L5.46504 27.3421C5.18965 26.424 6.30604 25.6712 7.24786 26.1432C8.22921 26.6393 10.4505 27.7682 10.9098 27.9998L15.8552 50.3512H14.9273ZM16.6068 50.3512L11.6454 27.9274C17.4949 23.9701 15.4774 25.3349 15.9139 25.0397C16.0321 24.9599 16.1618 24.9006 16.298 24.8635C16.8885 28.8075 19.6988 47.5777 20.1142 50.3511H16.6068V50.3512ZM20.8588 50.3512C20.3857 47.1909 17.6192 28.7163 17.0433 24.8697C17.2013 24.9154 17.2819 24.9695 17.3223 24.9862L22.724 27.9786L24.3739 50.3512H20.8588ZM29.3692 24.863C29.5652 24.918 29.6488 24.9877 29.7136 25.0143L34.5333 27.9545L32.8814 50.3512H29.369V24.863H29.3692ZM35.2709 27.9786L40.6828 24.9837C40.7494 24.9585 40.8009 24.9152 40.9565 24.8697L37.1362 50.3512H33.6211L35.2709 27.9786ZM41.7018 24.8635C41.8382 24.9005 41.9679 24.9596 42.0857 25.0394L46.3495 27.9269L41.3878 50.3512H37.8804L41.7018 24.8635ZM52.535 27.3421L46.3004 48.1459L46.2782 48.2105C45.8747 49.471 44.5544 50.3512 43.0674 50.3512H42.1395L47.0849 27.9996C48.1635 27.4543 46.9062 28.0922 50.7492 26.1423C51.682 25.6666 52.8123 26.4174 52.535 27.3421Z" fill="black"/>
<path d="M19.8251 17.3342C20.7778 17.3342 21.5529 16.6529 21.5529 15.8153C21.5529 14.9777 20.7778 14.2963 19.8251 14.2963C18.8724 14.2963 18.0977 14.9777 18.0977 15.8153C18.0977 16.6529 18.8726 17.3342 19.8251 17.3342ZM19.8251 14.9451C20.3712 14.9451 20.815 15.3355 20.815 15.8152C20.815 16.2949 20.371 16.6853 19.8251 16.6853C19.2795 16.6853 18.8356 16.2949 18.8356 15.8152C18.8356 15.3355 19.2796 14.9451 19.8251 14.9451Z" fill="black"/>
<path d="M31.3434 12.2133C32.2959 12.2133 33.0711 11.532 33.0711 10.6944C33.0711 9.85674 32.2961 9.17512 31.3434 9.17512C30.3907 9.17512 29.6159 9.85664 29.6159 10.6944C29.6159 11.5321 30.3907 12.2133 31.3434 12.2133ZM31.3434 9.82397C31.8893 9.82397 32.3332 10.2143 32.3332 10.6944C32.3332 11.1742 31.8893 11.5644 31.3434 11.5644C30.7977 11.5644 30.3538 11.1741 30.3538 10.6944C30.3538 10.2143 30.7977 9.82397 31.3434 9.82397Z" fill="black"/>
<path d="M34.9151 17.2278C35.8678 17.2278 36.6425 16.5463 36.6425 15.7086C36.6425 14.8709 35.8677 14.1897 34.9151 14.1897C33.9625 14.1897 33.1873 14.871 33.1873 15.7086C33.1872 16.5462 33.9623 17.2278 34.9151 17.2278ZM34.9151 14.8384C35.4608 14.8384 35.9046 15.2288 35.9046 15.7085C35.9046 16.1886 35.4607 16.5789 34.9151 16.5789C34.3692 16.5789 33.9253 16.1885 33.9253 15.7085C33.9251 15.2288 34.3691 14.8384 34.9151 14.8384Z" fill="black"/>
<path d="M42.489 15.1999C43.4417 15.1999 44.2164 14.5186 44.2164 13.6809C44.2164 12.8432 43.4415 12.162 42.489 12.162C41.5364 12.162 40.7612 12.8433 40.7612 13.6809C40.7613 14.5186 41.5364 15.1999 42.489 15.1999ZM42.489 12.8107C43.0346 12.8107 43.4785 13.201 43.4785 13.6807C43.4785 14.1605 43.0345 14.5508 42.489 14.5508C41.943 14.5508 41.4991 14.1605 41.4991 13.6807C41.4992 13.2011 41.9431 12.8107 42.489 12.8107Z" fill="black"/>
<path d="M11.2398 24.1357C12.1925 24.1357 12.9676 23.4541 12.9676 22.6164C12.9676 21.7787 12.1925 21.0975 11.2398 21.0975C10.2871 21.0975 9.51236 21.7788 9.51236 22.6164C9.51236 23.454 10.287 24.1357 11.2398 24.1357ZM11.2398 21.7462C11.7857 21.7462 12.2296 22.1366 12.2296 22.6163C12.2296 23.0963 11.7857 23.4867 11.2398 23.4867C10.6941 23.4867 10.2503 23.0963 10.2503 22.6163C10.2502 22.1365 10.6941 21.7462 11.2398 21.7462Z" fill="black"/>
<path d="M34.9151 25.01C35.8678 25.01 36.6425 24.3287 36.6425 23.4911C36.6425 22.6534 35.8677 21.9721 34.9151 21.9721C33.9625 21.9721 33.1873 22.6535 33.1873 23.4911C33.1872 24.3287 33.9623 25.01 34.9151 25.01ZM34.9151 22.621C35.4608 22.621 35.9046 23.0114 35.9046 23.4911C35.9046 23.9709 35.4607 24.3612 34.9151 24.3612C34.3692 24.3612 33.9253 23.9708 33.9253 23.4911C33.9253 23.0114 34.3691 22.621 34.9151 22.621Z" fill="black"/>
<path d="M20.815 23.8111C20.815 24.6488 21.5898 25.3301 22.5424 25.3301C23.4951 25.3301 24.2702 24.6487 24.2702 23.8111C24.2702 22.9735 23.4951 22.2919 22.5424 22.2919C21.5898 22.292 20.815 22.9735 20.815 23.8111ZM22.5425 22.9408C23.0884 22.9408 23.5324 23.3312 23.5324 23.8112C23.5324 24.291 23.0884 24.6813 22.5425 24.6813C21.9969 24.6813 21.553 24.2909 21.553 23.8112C21.5529 23.3311 21.9968 22.9408 22.5425 22.9408Z" fill="black"/>
<path d="M46.7551 24.1357C47.7078 24.1357 48.4826 23.4541 48.4826 22.6164C48.4826 21.7787 47.7077 21.0975 46.7551 21.0975C45.8026 21.0975 45.0274 21.7788 45.0274 22.6164C45.0274 23.454 45.8024 24.1357 46.7551 24.1357ZM46.7551 21.7462C47.3008 21.7462 47.7447 22.1366 47.7447 22.6163C47.7447 23.0963 47.3007 23.4867 46.7551 23.4867C46.2091 23.4867 45.7653 23.0963 45.7653 22.6163C45.7653 22.1365 46.2091 21.7462 46.7551 21.7462Z" fill="black"/>
</g>
<defs>
<clipPath id="clip0_33_114">
<rect width="58" height="51" fill="white"/>
</clipPath>
</defs>
</svg>
