<svg width="34" height="33" viewBox="0 0 34 33" fill="none" xmlns="http://www.w3.org/2000/svg">
<path d="M8.07502 24.75L11.3334 19.25C9.77502 19.25 8.44099 18.7115 7.33127 17.6344C6.22155 16.5573 5.66669 15.2625 5.66669 13.75C5.66669 12.2375 6.22155 10.9427 7.33127 9.86563C8.44099 8.78854 9.77502 8.25 11.3334 8.25C12.8917 8.25 14.2257 8.78854 15.3354 9.86563C16.4452 10.9427 17 12.2375 17 13.75C17 14.2771 16.9351 14.7641 16.8052 15.2109C16.6754 15.6578 16.4806 16.0875 16.2209 16.5L11.3334 24.75H8.07502ZM20.825 24.75L24.0834 19.25C22.525 19.25 21.191 18.7115 20.0813 17.6344C18.9715 16.5573 18.4167 15.2625 18.4167 13.75C18.4167 12.2375 18.9715 10.9427 20.0813 9.86563C21.191 8.78854 22.525 8.25 24.0834 8.25C25.6417 8.25 26.9757 8.78854 28.0854 9.86563C29.1952 10.9427 29.75 12.2375 29.75 13.75C29.75 14.2771 29.6851 14.7641 29.5552 15.2109C29.4254 15.6578 29.2306 16.0875 28.9709 16.5L24.0834 24.75H20.825ZM11.3334 15.8125C11.9236 15.8125 12.4254 15.612 12.8386 15.2109C13.2518 14.8099 13.4584 14.3229 13.4584 13.75C13.4584 13.1771 13.2518 12.6901 12.8386 12.2891C12.4254 11.888 11.9236 11.6875 11.3334 11.6875C10.7431 11.6875 10.2413 11.888 9.82815 12.2891C9.41495 12.6901 9.20835 13.1771 9.20835 13.75C9.20835 14.3229 9.41495 14.8099 9.82815 15.2109C10.2413 15.612 10.7431 15.8125 11.3334 15.8125ZM24.0834 15.8125C24.6736 15.8125 25.1754 15.612 25.5886 15.2109C26.0018 14.8099 26.2084 14.3229 26.2084 13.75C26.2084 13.1771 26.0018 12.6901 25.5886 12.2891C25.1754 11.888 24.6736 11.6875 24.0834 11.6875C23.4931 11.6875 22.9913 11.888 22.5781 12.2891C22.165 12.6901 21.9584 13.1771 21.9584 13.75C21.9584 14.3229 22.165 14.8099 22.5781 15.2109C22.9913 15.612 23.4931 15.8125 24.0834 15.8125Z" fill="#393939"/>
</svg>
