<?xml version="1.0" standalone="no"?>
<!DOCTYPE svg PUBLIC "-//W3C//DTD SVG 20010904//EN"
 "http://www.w3.org/TR/2001/REC-SVG-20010904/DTD/svg10.dtd">
<svg version="1.0" xmlns="http://www.w3.org/2000/svg"
 width="700.000000pt" height="700.000000pt" viewBox="0 0 700.000000 700.000000"
 preserveAspectRatio="xMidYMid meet">
<metadata>
Created by potrace 1.14, written by Peter Selinger 2001-2017
</metadata>
<g transform="translate(0.000000,700.000000) scale(0.100000,-0.100000)"
fill="#000000" stroke="none">
<path d="M3280 6995 c-2 -5 -2 -14 -1 -19 1 -5 -4 -4 -11 2 -15 12 -35 11 -57
-2 -10 -7 -12 -6 -6 4 6 10 4 12 -11 6 -10 -4 -48 -9 -83 -11 -35 -2 -67 -9
-71 -16 -6 -8 -9 -8 -13 2 -4 9 -8 10 -14 4 -4 -5 -21 -10 -38 -10 -16 1 -46
-3 -65 -6 -19 -4 -55 -10 -80 -14 -110 -16 -470 -115 -555 -154 -11 -5 -49
-20 -85 -34 -36 -14 -86 -34 -113 -46 -26 -11 -51 -21 -55 -22 -4 -1 -19 -10
-34 -20 -14 -10 -30 -19 -36 -19 -16 0 -211 -109 -333 -186 -354 -224 -690
-538 -932 -869 -36 -49 -74 -101 -85 -115 -38 -51 -171 -279 -225 -386 -144
-288 -253 -600 -306 -884 -33 -174 -36 -192 -46 -300 -4 -36 -9 -76 -11 -90
-3 -14 -7 -122 -9 -240 -3 -160 -1 -216 8 -222 8 -5 8 -8 1 -8 -6 0 -10 -12
-9 -27 2 -16 6 -68 10 -118 4 -49 9 -94 12 -98 3 -4 6 -36 8 -70 2 -34 6 -73
9 -87 4 -14 8 -38 10 -55 8 -55 37 -189 63 -285 127 -485 368 -952 694 -1345
94 -113 291 -314 389 -396 35 -30 71 -60 79 -68 8 -7 49 -39 90 -70 42 -31 78
-59 81 -62 5 -6 198 -133 241 -158 13 -8 56 -32 94 -53 39 -21 77 -43 85 -48
35 -21 267 -130 285 -134 6 -1 28 -10 50 -20 53 -23 378 -128 435 -140 14 -3
66 -15 115 -26 50 -11 106 -23 125 -26 19 -3 46 -7 59 -9 13 -2 45 -7 70 -11
25 -3 57 -8 71 -10 163 -25 682 -25 842 1 13 2 45 6 72 10 425 54 918 227
1306 460 95 57 284 185 335 227 170 139 229 191 335 298 137 137 201 209 306
345 305 395 541 901 639 1368 2 10 6 26 9 35 3 9 7 33 10 52 3 19 8 46 11 60
2 13 7 42 10 65 3 22 8 47 10 55 2 8 7 47 11 85 3 39 8 84 11 100 8 58 10 511
2 597 -13 139 -22 208 -39 308 -6 36 -14 79 -16 96 -3 18 -21 92 -40 165 -19
74 -36 143 -39 153 -46 189 -210 558 -351 796 -64 107 -107 170 -219 325 -107
148 -369 421 -540 564 -161 134 -370 278 -540 372 -97 53 -295 149 -308 149
-7 0 -17 4 -22 9 -17 16 -276 109 -409 146 -195 55 -334 82 -443 88 -18 1 -33
6 -33 12 0 5 -5 4 -12 -3 -9 -9 -16 -8 -32 6 -19 16 -19 16 -13 -3 7 -20 7
-20 -8 -1 -9 12 -15 15 -15 7 0 -11 -3 -11 -15 -1 -12 10 -18 10 -32 -1 -10
-8 -14 -9 -10 -2 4 6 3 14 -3 18 -5 3 -10 1 -10 -6 0 -8 -5 -7 -17 2 -9 8 -17
14 -18 14 -1 0 -9 -6 -18 -14 -13 -10 -17 -10 -17 -1 0 8 -10 11 -30 8 -17 -3
-30 0 -30 6 0 5 -7 1 -16 -10 -8 -10 -13 -13 -9 -6 7 13 4 14 -75 16 -38 1
-59 -4 -68 -14 -12 -13 -13 -13 -8 3 3 9 1 17 -4 17 -6 0 -10 -6 -10 -12 0 -9
-3 -9 -9 1 -8 12 -11 12 -25 -1 -17 -17 -12 -30 9 -22 7 3 15 1 19 -4 8 -13
-30 -8 -47 6 -7 7 -17 9 -21 5 -4 -4 -4 0 -1 8 5 13 -3 15 -40 15 -39 -1 -45
-4 -41 -19 2 -9 0 -15 -5 -11 -5 3 -9 11 -9 18 0 18 -32 15 -44 -4 -8 -12 -11
-11 -17 5 -4 11 -8 16 -9 10z m149 -28 c0 -9 -2 -9 -5 -1 -3 7 -15 10 -27 8
-21 -4 -21 -4 -2 5 23 10 35 5 34 -12z m196 13 c-3 -5 -14 -10 -23 -9 -14 0
-13 2 3 9 27 11 27 11 20 0z m16 -13 c-10 -9 -11 -8 -5 6 3 10 9 15 12 12 3
-3 0 -11 -7 -18z m-389 6 c-6 -3 -9 -10 -5 -16 4 -7 -1 -6 -10 2 -21 17 -21
17 6 18 12 0 16 -1 9 -4z m78 -13 c-12 -22 -21 -26 -17 -7 2 10 17 26 25 27 1
0 -2 -9 -8 -20z m253 6 c6 -15 -17 -16 -30 -1 -4 4 -2 5 5 1 6 -4 12 -2 12 3
0 15 7 14 13 -3z m147 -8 c0 -6 -6 -5 -15 2 -8 7 -15 14 -15 16 0 2 7 1 15 -2
8 -4 15 -11 15 -16z m94 6 c3 -8 2 -12 -4 -9 -6 3 -10 10 -10 16 0 14 7 11 14
-7z m-720 -2 c3 -5 -1 -9 -9 -9 -8 0 -12 4 -9 9 3 4 7 8 9 8 2 0 6 -4 9 -8z
m530 -20 c3 -5 -1 -9 -9 -9 -8 0 -12 4 -9 9 3 4 7 8 9 8 2 0 6 -4 9 -8z m236
-2 c0 -5 -5 -10 -11 -10 -5 0 -7 5 -4 10 3 6 8 10 11 10 2 0 4 -4 4 -10z"/>
<path d="M3460 6989 c0 -5 5 -7 10 -4 6 3 10 8 10 11 0 2 -4 4 -10 4 -5 0 -10
-5 -10 -11z"/>
</g>
</svg>
