<svg width="25" height="25" viewBox="0 0 25 25" fill="none" xmlns="http://www.w3.org/2000/svg">
<path d="M12.5 4C7.8055 4 4 7.8055 4 12.5C4 17.1945 7.8055 21 12.5 21C17.1945 21 21 17.1945 21 12.5C21 7.8055 17.1945 4 12.5 4ZM12.5 4.5C16.9185 4.5 20.5 8.0815 20.5 12.5C20.5 16.9185 16.9185 20.5 12.5 20.5C8.0815 20.5 4.5 16.9185 4.5 12.5C4.5 8.0815 8.0815 4.5 12.5 4.5ZM15.9932 9.15332C15.797 9.13063 15.551 9.18383 15.2754 9.2832C14.7719 9.4647 8.33634 12.1975 7.96484 12.3555C7.61234 12.5055 7.27882 12.6688 7.27832 12.9053C7.27832 13.0713 7.37741 13.1647 7.64941 13.2617C7.93241 13.3627 8.64541 13.5793 9.06641 13.6953C9.47191 13.8073 9.93388 13.7093 10.1924 13.5488C10.4664 13.3783 13.6314 11.2607 13.8584 11.0752C14.0854 10.8897 14.2656 11.128 14.0801 11.3135C13.8941 11.4995 11.722 13.6074 11.4355 13.8994C11.0875 14.2539 11.3349 14.6216 11.5684 14.7686C11.8349 14.9366 13.751 16.2212 14.04 16.4277C14.329 16.6337 14.6216 16.7275 14.8896 16.7275C15.1576 16.7275 15.2981 16.3743 15.4316 15.9648C15.5881 15.4853 16.3211 10.7037 16.4111 9.76172C16.4381 9.47672 16.3484 9.28665 16.1719 9.20215C16.1185 9.17652 16.0586 9.16088 15.9932 9.15332Z" fill="black"/>
</svg>
